<?xml version="1.0" standalone="no"?><!-- Generator: Gravit.io --><svg xmlns="http://www.w3.org/2000/svg" xmlns:xlink="http://www.w3.org/1999/xlink" style="isolation:isolate" viewBox="0 0 250 250" width="250" height="250"><defs><clipPath id="_clipPath_H73nfjzZCPYjCG7o6ML8mV6bnY8rdFLr"><rect width="250" height="250"/></clipPath></defs><g clip-path="url(#_clipPath_H73nfjzZCPYjCG7o6ML8mV6bnY8rdFLr)"><path d=" M 125 0 C 105.1 0 90.25 4.3 70.3 9.4 C 60.35 29.3 39.65 84.75 104.7 154.7 C 154.7 204.7 199.6 205.25 229.7 195.3 C 239.65 175.4 250 150 250 125 C 250 55.1 194.9 0 125 0 Z  M 50 20.3 C 19.9 45.3 0 80.1 0 125 C 0 194.9 55.1 250 125 250 C 155.1 250 184.4 235.5 209.4 215.6 C 174.4 225.6 134.4 220.3 84.4 170.3 C 24.4 110.35 34.95 55.3 50 20.3 Z " fill="rgb(40,110,37)"/></g></svg>