<?xml version="1.0" standalone="no"?><!-- Generator: Gravit.io --><svg xmlns="http://www.w3.org/2000/svg" xmlns:xlink="http://www.w3.org/1999/xlink" style="isolation:isolate" viewBox="0 0 250 250" width="250" height="250"><defs><clipPath id="_clipPath_feFvUaxC0JdBm3dR4XAnkthaaMlGIQvi"><rect width="250" height="250"/></clipPath></defs><g clip-path="url(#_clipPath_feFvUaxC0JdBm3dR4XAnkthaaMlGIQvi)"><path d=" M 196.951 0.152 C 193.015 0.632 190.951 1.956 190.951 1.956 L 60.46 132.685 C 56.63 136.514 56.63 141.196 60.46 144.085 L 105.455 189.068 C 108.335 191.947 113.97 191.947 116.859 189.068 L 247.648 58.627 C 247.648 58.627 258.938 43.447 232.048 17.539 C 215.258 1.351 203.565 -0.664 196.961 0.152 L 196.951 0.152 Z  M 56.553 160.282 L 56.553 166.279 C 56.553 172.046 54.681 176.844 50.86 180.672 L 2.861 228.65 C 1.061 229.99 0 232.101 0 234.345 C 0 236.588 1.061 238.7 2.861 240.04 L 9.456 247.841 C 13.277 250.72 19.171 250.72 22.061 247.841 L 70.06 199.863 C 73.833 195.974 79.04 193.805 84.46 193.866 L 90.152 193.866 L 56.553 160.282 Z " fill="rgb(40,110,37)"/></g></svg>