<?xml version="1.0" standalone="no"?><!-- Generator: Gravit.io --><svg xmlns="http://www.w3.org/2000/svg" xmlns:xlink="http://www.w3.org/1999/xlink" style="isolation:isolate" viewBox="0 0 220 200" width="220" height="200"><defs><clipPath id="_clipPath_TDX83tCbE8yqV3gYDQ7gQQyj7YPkuvez"><rect width="220" height="200"/></clipPath></defs><g clip-path="url(#_clipPath_TDX83tCbE8yqV3gYDQ7gQQyj7YPkuvez)"><g id="Group"><path d=" M 152.015 147.148 C 138.113 160.78 125.214 179.614 125.214 179.614 L 125.214 140.982 L 111.467 140.982 L 111.467 179.614 C 111.467 179.614 99.727 168.414 87.408 160.78 L 81.886 159.815 C 81.886 159.815 108.918 179.153 111.428 188.297 L 111.428 200 L 125.176 200 L 125.176 188.297 C 127.686 179.153 157.46 146.183 157.46 146.183 L 152.015 147.148 L 152.015 147.148 Z " fill="rgb(220,191,151)"/><path d=" M 202.218 77.685 C 202.256 76.72 202.295 75.797 202.295 74.832 C 202.295 53.44 189.088 35.403 171.053 29.782 C 161.013 11.913 142.901 0 122.241 0 C 99.611 0 80.032 14.304 70.764 35.067 C 67.172 33.725 63.31 33.012 59.294 33.012 C 39.484 33.012 23.457 50.461 23.457 71.938 C 23.457 80.495 26.006 88.381 30.293 94.799 C 20.898 99.997 14.988 110.486 15 121.938 C 15 130.015 17.954 137.76 23.212 143.471 C 28.469 149.183 35.601 152.391 43.036 152.391 C 53.077 152.391 61.843 146.686 66.825 138.087 C 72.888 156.04 88.721 168.834 107.373 168.834 C 122.82 168.834 136.375 159.983 144.021 146.728 C 151.551 153.607 161.244 157.802 171.864 157.802 C 195.691 157.802 215 136.829 215 110.948 C 214.884 97.903 210.057 86.158 202.218 77.685 L 202.218 77.685 Z " fill="rgb(84,168,118)"/></g><g id="Group"><path d=" M 88 93.053 C 88 106.889 101.663 118.106 118.517 118.106 C 135.371 118.106 149.034 106.889 149.034 93.053 C 149.034 79.217 135.371 68 118.517 68 C 101.663 68 88 79.217 88 93.053 Z " fill="rgb(201,61,24)"/><path d=" M 144.891 105.435 C 145.845 104.057 146.646 102.617 147.279 101.101 C 143.143 102.98 138.502 103.981 133.775 104.013 C 117.985 103.993 105.191 93.489 105.166 80.526 C 105.166 76.487 106.539 72.773 108.713 69.441 C 106.876 69.943 105.107 70.599 103.434 71.401 C 102.083 74.317 101.378 77.407 101.351 80.526 C 101.368 95.222 115.875 107.131 133.775 107.145 C 137.712 107.145 141.405 106.487 144.891 105.435 Z " fill="rgb(239,154,154)"/></g></g></svg>