<?xml version="1.0" standalone="no"?><!-- Generator: Gravit.io --><svg xmlns="http://www.w3.org/2000/svg" xmlns:xlink="http://www.w3.org/1999/xlink" style="isolation:isolate" viewBox="0 0 306.255 318.027" width="306.255" height="318.027"><defs><clipPath id="_clipPath_mD3GUeAes2V2UFoQPJl22LkKghHnsEYx"><rect width="306.255" height="318.027"/></clipPath></defs><g clip-path="url(#_clipPath_mD3GUeAes2V2UFoQPJl22LkKghHnsEYx)"><g id="Group"><path d=" M 188.607 31.782 C 188.722 31.855 188.799 31.925 188.914 31.999 L 188.953 31.938 C 192.056 33.771 195.494 33.644 196.782 31.65 C 198.487 28.967 195.96 26.131 195.96 26.131 C 192.554 19.583 192.59 12.777 196.103 7.248 C 202.093 -2.178 218.575 -2.445 232.894 6.653 C 246.452 15.267 255.482 28.409 250.395 36.416 C 248.097 40.033 250.652 44.57 255.425 47.603 C 257.673 49.031 260.068 49.743 262.218 49.799 C 267.922 50.92 274.253 54.239 280.894 58.458 C 295.217 67.562 301.972 82.584 295.984 92.017 C 292.029 98.24 283.247 100.219 283.276 100.275 C 282.628 100.555 282.051 100.955 281.694 101.517 C 281.045 102.532 281.035 103.895 281.668 105.308 C 282.3 106.72 283.521 108.066 285.064 109.049 C 285.428 109.28 285.777 109.38 286.108 109.547 C 286.152 109.645 286.185 109.742 286.206 109.838 C 287.779 110.795 289.344 111.767 290.898 112.756 C 303.637 120.85 309.64 134.199 304.311 142.586 C 299.489 150.175 286.44 149.917 286.457 149.992 C 284.502 150.14 282.836 150.914 281.932 152.337 C 279.935 155.481 282.187 160.489 286.962 163.523 L 286.985 163.538 C 292.332 166.938 296.57 171.596 298.766 176.488 C 300.963 181.381 300.939 186.106 298.699 189.624 C 292.671 199.111 267.764 199.266 256.615 192.183 C 254.204 195.978 233.777 193.653 211.913 179.761 C 200.77 172.681 195.515 160.995 200.176 153.66 C 200.228 153.426 201.09 152.221 201.382 151.762 C 204.045 147.57 201.042 140.893 194.675 136.847 L 180.264 127.691 C 165.945 118.593 159.185 103.559 165.174 94.132 C 167.614 90.338 171.928 87.896 177.419 87.2 C 181.086 86.6 185.735 87.242 187.553 84.381 C 190.21 80.199 187.216 73.513 180.846 69.466 C 180.598 69.308 180.322 69.197 180.064 69.054 L 180.039 68.953 C 178.341 67.895 176.886 66.95 175.088 65.807 C 162.348 57.713 156.346 44.364 161.674 35.977 C 167.003 27.591 182.848 28.123 188.612 31.786 L 188.607 31.782 Z " fill="rgb(205,220,57)"/><path d=" M 252.016 72.071 C 247.347 73.994 243.102 75.708 238.634 76.512 C 234.22 77.346 229.95 77.254 225.671 76.117 C 223.715 75.567 220.891 74.497 218.336 73.539 C 215.736 72.511 213.124 71.453 210.487 70.279 C 205.215 67.93 199.878 65.327 193.844 61.744 C 196.025 67.354 201.31 72.624 207.046 76.79 C 209.965 78.89 213.077 80.734 216.297 82.275 C 219.531 83.807 222.603 85.136 226.53 86.113 C 234.106 87.97 240.878 86.76 245.044 83.935 C 249.194 81.033 251.764 77.051 252.016 72.071 Z  M 272.136 116.815 C 266.482 120.047 260.724 122.588 254.566 124.066 C 248.363 125.474 241.875 125.74 235.037 124.416 C 227.62 122.834 220.133 120.629 212.693 117.837 C 205.139 114.902 197.498 111.57 189.428 106.901 C 194.304 114.1 202.338 120.265 210.626 124.924 C 219.082 129.572 227.943 132.997 237.022 134.664 C 246.38 136.364 254.916 134.964 260.87 131.566 C 266.838 128.183 270.94 123.129 272.136 116.815 Z  M 271.082 169.414 C 260.885 168.448 253.034 168.414 244.967 167.534 C 240.96 167.129 236.999 166.589 232.763 165.793 C 228.523 165.054 224.072 163.91 218.675 162.75 C 225.523 171.469 237.868 177.065 248.138 178.018 C 253.26 178.528 258.021 178.05 262.079 176.617 C 266.007 175.16 269.409 172.99 271.082 169.414 Z " fill="rgb(175,180,43)"/><path d=" M 288.327 234.704 C 278.077 219.839 229.262 158.823 224.662 38.711 C 211.968 147.835 262.336 220.684 272.683 238.033 C 274.393 240.909 277.605 243.317 281.048 244.308 C 284.491 245.298 287.612 244.71 289.177 242.777 C 290.743 240.844 290.501 237.876 288.547 235.046 L 288.327 234.704 Z " fill="rgb(158,157,36)"/></g><g id="Group"><path d=" M 21.688 83.214 C 21.793 83.179 21.9 83.169 22.005 83.134 L 21.976 83.027 C 24.993 81.822 26.344 77.761 25.049 73.788 C 23.298 68.465 19.612 67.773 19.612 67.773 C 12.143 63.384 5.865 54.776 2.265 43.839 C -3.875 25.183 2.897 6.192 17.39 1.422 C 31.095 -3.089 47.07 3.226 52.28 19.058 C 54.635 26.212 59.905 29.028 64.734 27.439 C 67.014 26.688 68.685 24.873 69.643 22.52 C 73.119 17.449 78.872 14.465 85.59 12.254 C 100.083 7.484 116.81 18.741 122.951 37.397 C 127.005 49.716 125.091 62.143 125.154 62.197 C 125.123 63.281 125.244 64.414 125.619 65.555 C 126.281 67.567 127.538 69.292 129.112 70.35 C 130.686 71.408 132.448 71.713 134.01 71.196 C 134.36 71.081 134.595 70.813 134.903 70.628 L 135.201 70.887 C 136.68 70.351 138.221 69.811 139.9 69.258 C 152.784 65.018 167.652 75.024 173.11 91.607 C 178.051 106.62 172.266 121.071 172.324 121.151 C 171.633 123.567 171.636 126.403 172.567 129.233 C 174.614 135.452 180.189 139.204 185.021 137.614 L 185.047 137.597 C 196.315 133.911 209.306 142.666 214.076 157.162 C 220.253 175.929 209.779 204.335 198.507 208.046 C 200.977 215.552 190.126 235.763 168.012 243.042 C 156.74 246.752 143.73 237.997 138.954 223.486 C 138.758 223.126 138.02 220.649 137.719 219.733 C 134.99 211.441 127.555 206.438 121.114 208.558 L 106.535 213.357 C 92.041 218.127 75.314 206.87 69.174 188.214 C 66.718 180.68 66.307 172.726 68.006 165.636 C 69.01 160.713 71.577 156.24 69.722 150.603 C 66.993 142.311 59.559 137.308 53.117 139.428 C 52.86 139.513 52.648 139.674 52.403 139.772 L 52.292 139.691 C 50.6 140.265 49.108 140.739 47.283 141.34 C 34.401 145.58 19.531 135.573 14.073 118.991 C 8.616 102.409 15.856 85.133 21.688 83.214 Z " fill="rgb(205,220,57)"/><path d=" M 85.835 62.093 C 85.624 69.8 85.381 76.76 84.217 82.826 C 83.121 88.902 81.205 93.626 78.333 97.017 C 77.003 98.553 74.817 100.396 72.832 102.081 C 70.782 103.746 68.688 105.359 66.494 106.88 C 62.066 109.884 57.416 112.663 51.534 114.981 C 57.628 119.573 64.738 120.22 71.031 118.956 C 74.202 118.284 77.224 117.088 80.02 115.398 C 82.814 113.655 85.353 111.846 87.932 108.626 C 92.868 102.392 94.624 93.178 93.792 84.916 C 92.902 76.573 90.31 68.64 85.835 62.093 Z  M 135.651 95.624 C 136.221 106.094 136.106 115.8 134.845 124.634 C 133.514 133.434 130.984 141.122 126.836 147.196 C 122.442 153.327 117.097 159.238 111.274 164.208 C 105.349 169.103 99.006 173.553 91.27 176.798 C 99.978 180.338 109.085 179.022 116.922 175.477 C 124.8 171.761 131.739 166.041 137.158 157.86 C 142.693 149.382 145.027 137.956 144.435 126.944 C 143.872 115.906 140.97 104.931 135.651 95.624 Z  M 183.683 163.006 C 178.448 173.356 175.061 182.175 170.827 190.225 C 168.748 194.237 166.568 198.041 164.027 201.831 C 161.536 205.729 158.568 209.318 155.214 213.975 C 166.162 217.194 176.584 210.269 181.829 199.832 C 184.483 194.671 186.075 188.675 186.489 182.274 C 186.817 175.985 186.278 169.398 183.683 163.006 Z " fill="rgb(175,180,43)"/><path d=" M 251.193 225.632 C 233.142 218.544 156.104 197.042 43.432 51.089 C 138.609 202.8 227.222 237.44 247.6 247.547 C 250.997 249.295 254.631 248.724 257.045 246.063 C 259.459 243.403 260.259 239.087 259.124 234.845 C 257.989 230.604 255.106 227.129 251.628 225.813 L 251.193 225.632 Z " fill="rgb(158,157,36)"/></g><g id="Group"><path d=" M 135.614 114.568 C 135.614 114.568 120.309 136.772 130.066 167.284" fill="rgb(255,255,255)" vector-effect="non-scaling-stroke" stroke-width="2" stroke="rgb(121,85,72)" stroke-linejoin="miter" stroke-linecap="butt" stroke-miterlimit="10"/><path d=" M 130.066 167.284 C 130.066 167.284 101.092 105.874 22.062 156.519 C 52.715 220.257 130.066 167.284 130.066 167.284 Z " fill="rgb(76,175,80)"/><path d=" M 29.498 266.535 C 0.408 219.077 34.469 151.407 130.066 167.284 C 198.719 98.881 265.718 134.233 269.562 189.765 C 273.412 245.312 219.364 315.878 170.488 293.686 C 143.556 340.115 58.594 314.008 29.498 266.535 Z " fill="rgb(211,47,47)"/><path d=" M 185.174 143.826 C 170.322 148.575 155.264 158.499 140.393 173.302 L 134.021 179.653 L 165.383 277.721 L 178.8 283.828 C 186.314 287.238 193.745 287.681 201.53 285.191 C 228.362 276.611 258.482 233.216 255.625 192.169 C 254.2 171.2 242.384 153.215 224.789 145.185 C 212.938 139.796 199.227 139.332 185.174 143.826 Z " fill="rgb(255,243,224)"/><path d=" M 200.795 213.295 C 202.602 218.945 197.999 225.466 190.515 227.859 C 183.031 230.253 175.499 227.613 173.692 221.963 C 171.884 216.31 181.659 200.166 181.659 200.166 C 181.659 200.166 198.987 207.643 200.795 213.295 Z " fill="rgb(93,64,55)"/><path d=" M 130.066 167.284 C 34.462 151.409 0.408 219.077 29.498 266.535 C 58.594 314.008 143.558 340.12 170.488 293.686 L 130.066 167.284 Z " fill="rgb(244,67,54)"/></g></g></svg>