<?xml version="1.0" standalone="no"?><!-- Generator: Gravit.io --><svg xmlns="http://www.w3.org/2000/svg" xmlns:xlink="http://www.w3.org/1999/xlink" style="isolation:isolate" viewBox="0 0 389.75 337.281" width="389.75" height="337.281"><defs><clipPath id="_clipPath_07ccmyhbb6dbx1CFw3KiPTcsKWtJCCMV"><rect width="389.75" height="337.281"/></clipPath></defs><g clip-path="url(#_clipPath_07ccmyhbb6dbx1CFw3KiPTcsKWtJCCMV)"><g id="Group"><path d=" M 221.037 36.618 C 221.185 36.711 221.284 36.799 221.432 36.893 L 221.476 36.823 C 225.44 39.181 229.712 39.222 231.203 36.917 C 233.174 33.815 229.871 30.293 229.871 30.293 C 225.268 22.299 224.932 14.189 228.994 7.796 C 235.919 -3.104 256.413 -2.5 274.739 9.144 C 292.091 20.169 304.063 36.337 298.18 45.596 C 295.523 49.777 298.956 55.328 305.065 59.209 C 307.942 61.037 310.962 62.02 313.64 62.206 C 320.801 63.861 328.864 68.171 337.363 73.571 C 355.695 85.222 364.94 103.504 358.016 114.411 C 353.443 121.608 342.626 123.475 342.665 123.543 C 341.875 123.842 341.179 124.286 340.766 124.935 C 340.015 126.108 340.08 127.733 340.945 129.452 C 341.811 131.171 343.406 132.843 345.381 134.101 C 345.846 134.396 346.286 134.535 346.707 134.753 C 346.768 134.872 346.814 134.99 346.845 135.105 C 348.857 136.333 350.858 137.58 352.847 138.845 C 369.152 149.204 377.367 165.45 371.205 175.147 C 365.629 183.923 349.377 182.886 349.403 182.976 C 346.978 183.043 344.949 183.873 343.904 185.518 C 341.594 189.154 344.676 195.249 350.788 199.132 L 350.818 199.151 C 357.661 203.502 363.194 209.291 366.201 215.244 C 369.208 221.198 369.442 226.828 366.851 230.896 C 359.881 241.866 328.897 240.659 314.629 231.593 C 311.841 235.981 286.294 232.068 258.311 214.288 C 244.05 205.227 236.858 191.006 242.247 182.524 C 242.298 182.248 243.304 180.861 243.641 180.33 C 246.721 175.483 242.611 167.356 234.462 162.179 L 216.018 150.46 C 197.692 138.816 188.44 120.519 195.366 109.62 C 198.19 105.234 203.421 102.565 210.215 102.042 C 214.744 101.532 220.565 102.557 222.667 99.248 C 225.739 94.413 221.64 86.277 213.488 81.097 C 213.171 80.896 212.82 80.747 212.492 80.563 L 212.455 80.441 C 210.282 79.085 208.42 77.877 206.118 76.414 C 189.813 66.055 181.598 49.81 187.76 40.112 C 193.921 30.414 213.667 31.935 221.045 36.622 L 221.037 36.618 Z " fill="rgb(205,220,57)"/><path d=" M 302.191 88.181 C 296.488 90.212 291.303 92.017 285.788 92.726 C 280.342 93.473 275.024 93.124 269.636 91.531 C 267.171 90.765 263.598 89.332 260.364 88.048 C 257.072 86.677 253.762 85.27 250.416 83.723 C 243.724 80.629 236.937 77.228 229.23 72.621 C 232.257 79.428 239.128 86.005 246.498 91.292 C 250.248 93.957 254.223 96.329 258.316 98.345 C 262.426 100.353 266.323 102.108 271.264 103.492 C 280.794 106.128 289.153 105.065 294.178 101.932 C 299.181 98.704 302.156 94.103 302.191 88.181 Z  M 329.728 142.634 C 322.873 146.169 315.851 148.877 308.271 150.294 C 300.632 151.625 292.572 151.58 283.99 149.619 C 274.673 147.318 265.233 144.272 255.82 140.528 C 246.256 136.608 236.562 132.21 226.259 126.193 C 232.729 135.047 243.071 142.844 253.644 148.859 C 264.425 154.872 275.642 159.449 287.033 161.944 C 298.772 164.493 309.316 163.302 316.534 159.585 C 323.772 155.887 328.593 150.093 329.728 142.634 Z  M 331.358 205.265 C 318.615 203.544 308.844 203.064 298.758 201.564 C 293.749 200.858 288.79 199.992 283.474 198.807 C 278.157 197.689 272.554 196.076 265.774 194.392 C 274.783 205.167 290.457 212.526 303.288 214.236 C 309.691 215.131 315.588 214.827 320.558 213.346 C 325.364 211.829 329.475 209.434 331.358 205.265 Z " fill="rgb(175,180,43)"/><path d=" M 356.466 284.045 C 342.881 265.755 278.728 190.304 266.289 46.891 C 256.595 176.241 323.342 265.881 337.186 287.138 C 339.475 290.661 343.605 293.711 347.945 295.083 C 352.285 296.456 356.136 295.93 357.976 293.714 C 359.815 291.497 359.348 287.946 356.758 284.465 L 356.466 284.045 Z " fill="rgb(158,157,36)"/></g><g id="Group"><path d=" M 26.66 109.372 C 26.805 109.324 26.952 109.306 27.097 109.258 L 27.064 109.13 C 31.266 107.494 33.351 102.494 31.809 97.753 C 29.719 91.403 24.712 90.778 24.712 90.778 C 14.741 85.892 6.644 75.823 2.35 62.776 C -4.975 40.52 5.399 17.11 25.521 10.487 C 44.548 4.224 66.056 10.951 72.272 29.837 C 75.081 38.371 82.134 41.479 88.838 39.272 C 92.004 38.231 94.398 35.934 95.845 33.026 C 100.899 26.678 108.95 22.728 118.277 19.658 C 138.399 13.035 160.65 25.708 167.975 47.964 C 172.812 62.659 169.469 77.833 169.552 77.895 C 169.447 79.21 169.547 80.576 169.995 81.937 C 170.785 84.338 172.405 86.356 174.499 87.547 C 176.592 88.738 178.988 89.005 181.157 88.288 C 181.643 88.128 181.98 87.789 182.412 87.547 L 182.806 87.844 C 184.861 87.109 187.003 86.364 189.335 85.596 C 207.221 79.709 226.999 90.974 233.511 110.757 C 239.405 128.667 230.644 146.517 230.72 146.612 C 229.633 149.58 229.472 153.017 230.583 156.393 C 233.025 163.812 240.442 168.036 247.149 165.828 L 247.187 165.806 C 262.83 160.685 280.109 170.542 285.8 187.835 C 293.169 210.222 277.178 245.26 261.528 250.411 C 264.475 259.366 248.444 284.493 217.741 294.598 C 202.091 299.749 184.785 289.892 179.088 272.582 C 178.84 272.158 177.973 269.197 177.614 268.105 C 174.358 258.213 164.469 252.581 155.526 255.525 L 135.284 262.187 C 115.162 268.81 92.911 256.137 85.586 233.881 C 82.662 224.891 82.56 215.275 85.297 206.583 C 86.958 200.558 90.733 194.988 88.52 188.263 C 85.264 178.371 75.375 172.739 66.432 175.683 C 66.075 175.8 65.776 176.008 65.434 176.14 L 65.287 176.049 C 62.937 176.843 60.866 177.504 58.332 178.338 C 40.447 184.225 20.667 172.959 14.156 153.178 C 7.645 133.396 18.563 112.037 26.66 109.372 Z " fill="rgb(205,220,57)"/><path d=" M 115.72 80.05 C 114.984 89.403 114.248 97.854 112.301 105.273 C 110.448 112.702 107.55 118.539 103.421 122.815 C 101.511 124.754 98.411 127.115 95.594 129.272 C 92.69 131.409 89.73 133.485 86.637 135.456 C 80.4 139.355 73.871 142.992 65.683 146.144 C 73.761 151.356 83.458 151.727 92.148 149.83 C 96.53 148.831 100.737 147.206 104.664 144.996 C 108.591 142.721 112.173 140.381 115.891 136.328 C 123.011 128.486 125.951 117.217 125.291 107.251 C 124.556 97.191 121.467 87.726 115.72 80.05 Z  M 181.986 117.8 C 182.159 130.457 181.438 142.227 179.199 153.008 C 176.866 163.751 172.955 173.217 166.923 180.819 C 160.55 188.504 152.888 195.979 144.626 202.341 C 136.229 208.618 127.285 214.38 116.505 218.762 C 128.223 222.547 140.769 220.423 151.706 215.672 C 162.708 210.711 172.543 203.375 180.438 193.145 C 188.508 182.548 192.368 168.564 192.195 155.252 C 192.065 141.906 188.729 128.771 181.986 117.8 Z  M 243.843 196.681 C 236.075 209.531 230.926 220.416 224.661 230.418 C 221.581 235.402 218.375 240.139 214.677 244.88 C 211.039 249.749 206.766 254.272 201.904 260.11 C 216.708 263.376 231.38 254.379 239.168 241.424 C 243.102 235.014 245.629 227.655 246.568 219.873 C 247.382 212.231 247.026 204.279 243.843 196.681 Z " fill="rgb(175,180,43)"/><path d=" M 332.65 268.668 C 308.343 261.126 204.106 239.535 58.298 69.174 C 179.816 247.53 299.141 284.372 326.457 295.44 C 331.008 297.361 336.016 296.458 339.476 293.093 C 342.936 289.728 344.282 284.451 342.974 279.376 C 341.667 274.3 337.92 270.256 333.234 268.863 L 332.65 268.668 Z " fill="rgb(158,157,36)"/></g><g id="Group"><path d=" M 214.325 133.823 C 214.325 133.823 199.02 156.027 208.777 186.539" fill="rgb(255,255,255)" vector-effect="non-scaling-stroke" stroke-width="2" stroke="rgb(121,85,72)" stroke-linejoin="miter" stroke-linecap="butt" stroke-miterlimit="10"/><path d=" M 208.777 186.539 C 208.777 186.539 179.803 125.128 100.774 175.774 C 131.426 239.512 208.777 186.539 208.777 186.539 Z " fill="rgb(76,175,80)"/><path d=" M 108.21 285.79 C 79.119 238.332 113.18 170.662 208.777 186.539 C 277.43 118.136 344.429 153.488 348.274 209.02 C 352.123 264.566 298.076 335.132 249.199 312.941 C 222.267 359.369 137.305 333.263 108.21 285.79 Z " fill="rgb(211,47,47)"/><path d=" M 263.885 163.08 C 249.033 167.83 233.975 177.753 219.104 192.557 L 212.733 198.907 L 244.094 296.976 L 257.511 303.082 C 265.025 306.493 272.456 306.935 280.241 304.446 C 307.073 295.865 337.194 252.471 334.337 211.424 C 332.911 190.454 321.095 172.469 303.501 164.44 C 291.65 159.05 277.938 158.586 263.885 163.08 Z " fill="rgb(255,243,224)"/><path d=" M 279.506 232.55 C 281.313 238.2 276.711 244.721 269.226 247.114 C 261.742 249.507 254.21 246.867 252.403 241.217 C 250.596 235.565 260.37 219.42 260.37 219.42 C 260.37 219.42 277.699 226.898 279.506 232.55 Z " fill="rgb(93,64,55)"/><path d=" M 208.777 186.539 C 113.173 170.664 79.119 238.332 108.21 285.79 C 137.305 333.263 222.269 359.374 249.199 312.941 L 208.777 186.539 Z " fill="rgb(244,67,54)"/></g></g></svg>